<?xml version="1.0" encoding="UTF-8"?>
<svg data-bbox="1480 1490 7034.3 7019.14" viewBox="0 0 10000 10000" height="1000" width="1000" xmlns="http://www.w3.org/2000/svg" data-type="color">
    <g>
        <path d="M4903 8485c-13-13-23-31-23-40 0-8-4-15-10-15-5 0-10-9-10-20s-4-20-10-20-10-67-10-180 4-180 10-180 10-18 10-40 5-40 10-40c6 0 10-18 10-40s5-40 10-40c6 0 10-33 10-80s-4-80-10-80c-5 0-10-7-10-15 0-25-46-65-75-65-24 0-25-2-25-70v-70h-100c-60 0-100-4-100-10s-27-10-60-10-60-4-60-10c0-5-18-10-40-10s-40-4-40-10c0-5-18-10-40-10s-40-4-40-10c0-5-18-10-40-10s-40-4-40-10c0-5-13-10-30-10-16 0-30-4-30-10 0-5-13-10-30-10-16 0-30-4-30-10 0-5-9-10-20-10s-20-4-20-10c0-5-13-10-30-10-16 0-30-4-30-10 0-5-9-10-20-10s-20-4-20-10c0-5-9-10-20-10s-20-4-20-10c0-5-13-10-30-10-16 0-30-4-30-10 0-5-9-10-20-10s-20-4-20-10c0-5-8-10-18-10s-24-9-32-20-22-20-32-20-18-4-18-10c0-5-9-10-20-10s-20-4-20-10c0-5-8-10-18-10s-24-9-32-20-21-20-30-20-22-9-30-20-21-20-28-20c-8 0-27-13-42-30-15-16-33-30-40-30s-25-13-40-30c-27-29-60-40-60-20 0 6-38 10-95 10h-95l-75 75c-41 41-75 82-75 90s-4 15-10 15c-5 0-10 8-10 18s-9 24-20 32-20 22-20 32-4 18-10 18c-5 0-10 8-10 18s-9 24-20 32-20 20-20 27c0 17-106 123-123 123-7 0-19 9-27 20-8 12-26 20-42 20-15 0-28 5-28 10 0 17-169 13-186-4s-21-186-4-186c6 0 10-13 10-28 0-16 8-34 20-42 11-8 20-20 20-27 0-17 106-123 123-123 7 0 19-9 27-20s22-20 32-20 18-4 18-10c0-5 8-10 18-10s24-9 32-20 22-20 32-20 18-4 18-10c0-5 7-10 15-10 9 0 49-34 90-75l75-75v-95c0-57 4-95 10-95 20 0 9-33-20-60-16-15-30-33-30-40s-13-25-30-40c-16-15-30-34-30-42 0-7-9-20-20-28s-20-21-20-30-9-22-20-30-20-22-20-32-4-18-10-18c-5 0-10-9-10-20s-4-20-10-20c-5 0-10-8-10-18s-9-24-20-32-20-22-20-32-4-18-10-18c-5 0-10-9-10-20s-4-20-10-20c-5 0-10-13-10-30 0-16-4-30-10-30-5 0-10-9-10-20s-4-20-10-20c-5 0-10-9-10-20s-4-20-10-20c-5 0-10-13-10-30 0-16-4-30-10-30-5 0-10-9-10-20s-4-20-10-20c-5 0-10-13-10-30 0-16-4-30-10-30-5 0-10-13-10-30 0-16-4-30-10-30-5 0-10-18-10-40s-4-40-10-40c-5 0-10-18-10-40s-4-40-10-40c-5 0-10-18-10-40s-4-40-10-40-10-27-10-60-4-60-10-60-10-40-10-100v-100h-70c-68 0-70-1-70-25 0-29-40-75-65-75-8 0-15-4-15-10s-33-10-80-10-80 4-80 10-18 10-40 10-40 5-40 10c0 6-18 10-40 10s-40 5-40 10c0 6-67 10-180 10s-180-4-180-10c0-5-9-10-20-10s-20-4-20-10c0-5-7-10-15-10-9 0-27-11-40-25-21-20-25-34-25-85s4-65 25-85c13-14 31-25 40-25 8 0 15-4 15-10 0-5 9-10 20-10s20-4 20-10 67-10 180-10 180 4 180 10 18 10 40 10 40 5 40 10c0 6 18 10 40 10s40 5 40 10c0 6 33 10 80 10s80-4 80-10c0-5 7-10 15-10 25 0 65-46 65-75 0-24 2-25 70-25h70v-100c0-60 4-100 10-100s10-27 10-60 4-60 10-60 10-18 10-40 5-40 10-40c6 0 10-18 10-40s5-40 10-40c6 0 10-18 10-40s5-40 10-40c6 0 10-13 10-30 0-16 5-30 10-30 6 0 10-13 10-30 0-16 5-30 10-30 6 0 10-9 10-20s5-20 10-20c6 0 10-13 10-30 0-16 5-30 10-30 6 0 10-9 10-20s5-20 10-20c6 0 10-9 10-20s5-20 10-20c6 0 10-13 10-30 0-16 5-30 10-30 6 0 10-9 10-20s5-20 10-20c6 0 10-8 10-18s9-24 20-32 20-22 20-32 5-18 10-18c6 0 10-9 10-20s5-20 10-20c6 0 10-8 10-18s9-24 20-32 20-21 20-30 9-22 20-30 20-21 20-28c0-8 13-27 30-42 16-15 30-33 30-40s14-25 30-40c29-27 40-60 20-60-6 0-10-38-10-95v-95l-75-75c-41-41-81-75-90-75-8 0-15-4-15-10 0-5-8-10-18-10s-24-9-32-20-22-20-32-20-18-4-18-10c0-5-8-10-18-10s-24-9-32-20-20-20-27-20c-17 0-123-106-123-123 0-7-9-19-20-27-12-8-20-26-20-42 0-15-4-28-10-28-17 0-13-169 4-186s186-21 186-4c0 6 13 10 28 10 16 0 34 8 42 20 8 11 20 20 27 20 17 0 123 106 123 123 0 7 9 19 20 27s20 22 20 32 5 18 10 18c6 0 10 8 10 18s9 24 20 32 20 22 20 32 5 18 10 18c6 0 10 7 10 15s34 49 75 90l75 75h95c57 0 95 4 95 10 0 20 33 9 60-20 15-16 33-30 40-30s25-13 40-30c15-16 34-30 42-30 7 0 20-9 28-20s21-20 30-20 22-9 30-20 22-20 32-20 18-4 18-10c0-5 9-10 20-10s20-4 20-10c0-5 8-10 18-10s24-9 32-20 22-20 32-20 18-4 18-10c0-5 9-10 20-10s20-4 20-10c0-5 14-10 30-10 17 0 30-4 30-10 0-5 9-10 20-10s20-4 20-10c0-5 9-10 20-10s20-4 20-10c0-5 14-10 30-10 17 0 30-4 30-10 0-5 9-10 20-10s20-4 20-10c0-5 14-10 30-10 17 0 30-4 30-10 0-5 14-10 30-10 17 0 30-4 30-10 0-5 18-10 40-10s40-4 40-10c0-5 18-10 40-10s40-4 40-10c0-5 18-10 40-10s40-4 40-10 27-10 60-10 60-4 60-10 40-10 100-10h100v-70c0-68 1-70 25-70 29 0 75-40 75-65 0-8 5-15 10-15 6 0 10-33 10-80s-4-80-10-80c-5 0-10-18-10-40s-4-40-10-40c-5 0-10-18-10-40s-4-40-10-40-10-67-10-180 4-180 10-180 10-9 10-20 5-20 10-20c6 0 10-7 10-15 0-9 11-27 25-40 20-21 34-25 85-25s65 4 85 25c14 13 25 31 25 40 0 8 5 15 10 15 6 0 10 9 10 20s5 20 10 20c6 0 10 67 10 180s-4 180-10 180c-5 0-10 18-10 40s-4 40-10 40c-5 0-10 18-10 40s-4 40-10 40-10 33-10 80 4 80 10 80 10 7 10 15c0 25 46 65 75 65 24 0 25 2 25 70v70h100c60 0 100 4 100 10s27 10 60 10 60 4 60 10 18 10 40 10 40 5 40 10c0 6 18 10 40 10s40 5 40 10c0 6 18 10 40 10s40 5 40 10c0 6 14 10 30 10 17 0 30 5 30 10 0 6 14 10 30 10 17 0 30 5 30 10 0 6 9 10 20 10s20 5 20 10c0 6 14 10 30 10 17 0 30 5 30 10 0 6 9 10 20 10s20 5 20 10c0 6 9 10 20 10s20 5 20 10c0 6 14 10 30 10 17 0 30 5 30 10 0 6 9 10 20 10s20 5 20 10c0 6 8 10 18 10s24 9 32 20 22 20 32 20 18 5 18 10c0 6 9 10 20 10s20 5 20 10c0 6 8 10 18 10s24 9 32 20 21 20 30 20 22 9 30 20 21 20 28 20c8 0 27 14 42 30 15 17 33 30 40 30s25 14 40 30c27 29 60 40 60 20 0-6 38-10 95-10h95l75-75c41-41 75-82 75-90s5-15 10-15c6 0 10-8 10-18s9-24 20-32 20-22 20-32 5-18 10-18c6 0 10-8 10-18s9-24 20-32 20-20 20-27c0-17 106-123 123-123 7 0 19-9 27-20 8-12 26-20 42-20 15 0 28-4 28-10 0-17 169-13 186 4s21 186 4 186c-5 0-10 13-10 28 0 16-8 34-20 42-11 8-20 20-20 27 0 17-106 123-123 123-7 0-19 9-27 20s-22 20-32 20-18 5-18 10c0 6-8 10-18 10s-24 9-32 20-22 20-32 20-18 5-18 10c0 6-7 10-15 10-9 0-49 34-90 75l-75 75v95c0 57-4 95-10 95-20 0-9 33 20 60 17 15 30 33 30 40s14 25 30 40c17 15 30 34 30 42 0 7 9 20 20 28s20 21 20 30 9 22 20 30 20 22 20 32 5 18 10 18c6 0 10 9 10 20s5 20 10 20c6 0 10 8 10 18s9 24 20 32 20 22 20 32 5 18 10 18c6 0 10 9 10 20s5 20 10 20c6 0 10 14 10 30 0 17 5 30 10 30 6 0 10 9 10 20s5 20 10 20c6 0 10 9 10 20s5 20 10 20c6 0 10 14 10 30 0 17 5 30 10 30 6 0 10 9 10 20s5 20 10 20c6 0 10 14 10 30 0 17 5 30 10 30 6 0 10 14 10 30 0 17 5 30 10 30 6 0 10 18 10 40s5 40 10 40c6 0 10 18 10 40s5 40 10 40c6 0 10 18 10 40s5 40 10 40c6 0 10 27 10 60s4 60 10 60 10 40 10 100v100h70c68 0 70 1 70 25 0 29 40 75 65 75 8 0 15 5 15 10 0 6 33 10 80 10s80-4 80-10c0-5 18-10 40-10s40-4 40-10c0-5 18-10 40-10s40-4 40-10 67-10 180-10 180 4 180 10 9 10 20 10 20 5 20 10c0 6 7 10 15 10 21 0 93 72 77 78-7 2-12 22-12 48 0 34-6 51-25 69-13 14-31 25-40 25-8 0-15 5-15 10 0 6-9 10-20 10s-20 5-20 10c0 6-67 10-180 10s-180-4-180-10c0-5-18-10-40-10s-40-4-40-10c0-5-18-10-40-10s-40-4-40-10-32-10-75-10c-73 0-77 1-110 35-19 19-35 39-35 45 0 27-30 40-94 40h-66v100c0 60-4 100-10 100s-10 27-10 60-4 60-10 60c-5 0-10 18-10 40s-4 40-10 40c-5 0-10 18-10 40s-4 40-10 40c-5 0-10 18-10 40s-4 40-10 40c-5 0-10 14-10 30 0 17-4 30-10 30-5 0-10 14-10 30 0 17-4 30-10 30-5 0-10 9-10 20s-4 20-10 20c-5 0-10 14-10 30 0 17-4 30-10 30-5 0-10 9-10 20s-4 20-10 20c-5 0-10 9-10 20s-4 20-10 20c-5 0-10 14-10 30 0 17-4 30-10 30-5 0-10 9-10 20s-4 20-10 20c-5 0-10 8-10 18s-9 24-20 32-20 22-20 32-4 18-10 18c-5 0-10 9-10 20s-4 20-10 20c-5 0-10 8-10 18s-9 24-20 32-20 21-20 30-9 22-20 30-20 21-20 28c0 8-13 27-30 42-16 15-30 33-30 40s-13 25-30 40c-29 27-40 60-20 60 6 0 10 38 10 95v95l75 75c41 41 81 75 90 75 8 0 15 5 15 10 0 6 8 10 18 10s24 9 32 20 22 20 32 20 18 5 18 10c0 6 8 10 18 10s24 9 32 20 20 20 27 20c17 0 123 106 123 123 0 7 9 19 20 27 12 8 20 26 20 42 0 15 5 28 10 28 17 0 13 169-4 186s-186 21-186 4c0-5-13-10-28-10-16 0-34-8-42-20-8-11-20-20-27-20-17 0-123-106-123-123 0-7-9-19-20-27s-20-22-20-32-4-18-10-18c-5 0-10-8-10-18s-9-24-20-32-20-22-20-32-4-18-10-18c-5 0-10-7-10-15s-34-49-75-90l-75-75h-95c-57 0-95-4-95-10 0-20-33-9-60 20-15 17-33 30-40 30s-25 14-40 30c-15 17-34 30-42 30-7 0-20 9-28 20s-21 20-30 20-22 9-30 20-22 20-32 20-18 5-18 10c0 6-9 10-20 10s-20 5-20 10c0 6-8 10-18 10s-24 9-32 20-22 20-32 20-18 5-18 10c0 6-9 10-20 10s-20 5-20 10c0 6-13 10-30 10-16 0-30 5-30 10 0 6-9 10-20 10s-20 5-20 10c0 6-9 10-20 10s-20 5-20 10c0 6-13 10-30 10-16 0-30 5-30 10 0 6-9 10-20 10s-20 5-20 10c0 6-13 10-30 10-16 0-30 5-30 10 0 6-13 10-30 10-16 0-30 5-30 10 0 6-18 10-40 10s-40 5-40 10c0 6-18 10-40 10s-40 5-40 10c0 6-18 10-40 10s-40 5-40 10c0 6-27 10-60 10s-60 4-60 10-40 10-100 10h-100v66c0 64-13 94-40 94-6 0-26 16-45 35-34 33-35 37-35 110 0 43 4 75 10 75s10 18 10 40 5 40 10 40c6 0 10 18 10 40s5 40 10 40c6 0 10 67 10 180s-4 180-10 180c-5 0-10 9-10 20s-4 20-10 20c-5 0-10 7-10 15 0 9-11 27-25 40-21 21-33 25-87 24-53 0-67-4-85-24zm408-1231c746-107 1384-569 1719-1246 82-165 121-270 165-443 52-205 69-342 69-565s-17-360-69-565c-44-173-83-278-165-443-181-365-438-659-774-884-284-190-604-312-951-364-164-24-466-24-630 0-661 99-1224 456-1588 1006-79 121-190 339-237 467-90 250-134 503-134 783 0 223 17 360 69 565 44 173 83 278 165 443 181 365 438 659 774 884 318 213 678 340 1069 378 125 12 379 4 518-16z" fill="#c66669" data-color="1"/>
        <path d="M4943 7214c-15-24-15-28 0-52 12-20 24-27 47-27s35 7 47 27c15 24 15 28 0 52-12 18-26 26-47 26s-35-8-47-26z" fill="#c66669" data-color="1"/>
        <path d="M4796 7088c-379-33-766-185-1086-426-97-73-309-285-382-382-580-769-580-1791 0-2560 73-97 285-309 382-382 494-372 1102-513 1698-392 306 61 603 197 862 392 97 73 309 285 382 382 580 769 580 1791 0 2560-32 41-113 131-182 200s-159 150-200 182c-431 325-944 473-1474 426zm-4-275c3-44 6-49 42-68 89-46 101-143 45-365-30-121-34-149-34-270 0-118 3-141 22-182l22-48h-33c-52 0-65-17-68-89l-3-64-51-17c-27-10-65-25-83-35l-33-17-42 41c-47 46-78 52-112 20l-22-21-27 56c-31 65-107 153-180 205-27 21-102 69-165 108-140 87-188 134-205 200-10 39-10 53 1 75 19 37 18 43-16 82l-30 34 30 25c108 91 350 222 517 281 116 40 315 87 405 95 13 1 18-9 20-46zm607 10c150-32 289-82 425-150 110-55 248-140 306-190l30-25-30-34c-34-39-35-45-16-82 11-22 11-36 1-75-17-66-65-113-205-200-63-39-138-87-165-108-73-52-149-140-180-205l-27-56-22 21c-34 32-65 26-112-20l-42-41-33 17c-18 10-56 25-83 35l-51 17-3 64c-3 72-16 89-68 89h-33l22 48c19 41 22 64 22 182 0 121-4 149-34 270-56 222-44 319 45 365 36 19 39 24 42 68l3 48 47-6c26-4 98-18 161-32zm-1788-713c5 0 22 6 37 14 41 21 113-1 163-50 22-22 79-102 127-178 119-193 233-309 325-331 32-8 34-16 7-40-31-28-25-64 20-110l39-40-34-85-34-85-66-5c-72-6-85-15-85-67v-32l-47 22c-42 19-65 22-183 22-119 0-150-4-260-32-168-42-233-49-290-28-50 18-80 41-80 63 0 31-32 52-77 52h-44l6 48c27 194 90 396 178 577 59 121 152 270 200 322l20 22 34-29c18-17 38-30 44-30zm2933-69c153-229 263-520 301-793l6-48h-42c-45 0-79-21-79-50 0-24-28-47-80-65-57-21-122-14-290 28-110 28-141 32-260 32-118 0-141-3-182-22l-48-22v32c0 52-13 61-85 67l-66 5-34 85-34 85 39 40c45 46 51 82 20 110-27 24-25 32 8 40 91 22 205 138 324 331 101 163 147 212 215 229 40 10 53 10 76-2 33-17 56-11 87 22 22 23 25 24 42 9 10-9 47-60 82-113zm-1397-573c218-67 369-308 333-533-37-232-193-388-425-425-174-28-370 59-472 208-147 217-101 518 104 674 134 101 293 128 460 76zm-1529-581c112-28 143-32 262-32 118 0 141 3 183 22l47 22v-32c0-52 13-61 85-67l66-5 34-85 34-85-39-40c-45-46-51-82-20-110 27-24 25-32-7-40-92-22-206-138-325-331-48-76-105-156-127-178-50-49-122-71-163-50-37 19-43 18-81-16l-34-29-20 22c-84 90-227 353-287 524-33 97-77 279-91 376l-6 47h42c45 0 79 21 79 50 0 23 28 47 76 65 53 20 134 12 292-28zm3033 28c49-18 79-41 79-63 0-31 32-52 77-52h44l-6-47c-14-97-58-279-91-376-60-171-203-434-287-524l-20-22-34 29c-38 34-44 35-81 16-41-21-113 1-163 50-22 22-79 102-127 178-119 193-233 309-324 331-33 8-35 16-8 40 31 28 25 64-20 110l-39 40 34 85 34 85 66 5c72 6 85 15 85 67v32l48-22c41-19 64-22 182-22s151 4 265 32c194 48 221 51 286 28zm-1956-608c33-13 68-27 78-30 14-5 17-18 17-71 0-72 11-86 69-86h30l-22-47c-19-42-22-65-22-183 0-121 4-149 34-270 56-222 44-319-45-365-36-19-39-24-42-68l-3-48-47 6c-96 14-278 58-375 91-167 59-409 190-517 281l-30 25 30 34c34 39 35 45 16 82-11 22-11 36-1 75 17 66 65 113 205 200 63 39 138 87 165 108 73 52 149 140 180 205l27 56 22-21c34-32 66-27 111 19 22 22 44 38 50 36 5-3 37-16 70-29zm710-7c45-46 77-51 111-19l22 21 27-56c31-65 107-153 180-205 27-21 102-69 165-108 140-87 188-134 205-200 10-39 10-53-1-75-19-37-18-43 16-82l30-34-30-25c-108-91-350-222-517-281-97-33-279-77-375-91l-47-6-3 48c-3 44-6 49-42 68-89 46-101 143-45 365 30 121 34 149 34 270 0 118-3 141-22 183l-22 47h33c52 0 65 17 68 89l3 63 60 22c33 12 69 27 80 34 28 16 27 17 70-28z" fill="#c66669" data-color="1"/>
        <path d="M4945 5433c-16-24-16-30-4-52 11-20 23-26 49-26s38 6 49 26c12 22 12 28-4 52-12 19-26 27-45 27s-33-8-45-27z" fill="#c66669" data-color="1"/>
        <path d="M4667 5322c-33-37-11-92 37-92 28 0 56 29 56 58 0 47-61 69-93 34z" fill="#c66669" data-color="1"/>
        <path d="M5236 5324c-34-33-7-94 42-94 47 0 69 61 34 93-23 21-56 22-76 1z" fill="#c66669" data-color="1"/>
        <path d="M4911 5305c-70-20-111-46-160-101-72-82-94-203-56-314 25-76 109-160 185-185 123-42 241-15 331 74 126 127 126 315 0 442-83 83-193 113-300 84z" fill="#c66669" data-color="1"/>
        <path d="M4552 5042c-31-24-27-68 10-89 24-15 28-15 52 0 34 22 36 69 4 91-28 20-38 20-66-2z" fill="#c66669" data-color="1"/>
        <path d="M5362 5044c-32-22-30-69 4-91 24-15 28-15 52 0 37 21 41 65 10 89-28 22-38 22-66 2z" fill="#c66669" data-color="1"/>
        <path d="M4666 4754c-34-33-7-94 42-94 47 0 69 61 34 93-23 21-56 22-76 1z" fill="#c66669" data-color="1"/>
        <path d="M5237 4752c-33-37-11-92 37-92 28 0 56 29 56 58 0 47-61 69-93 34z" fill="#c66669" data-color="1"/>
        <path d="M4943 4624c-15-24-15-28 0-52 12-20 24-27 47-27s35 7 47 27c15 24 15 28 0 52-12 18-26 26-47 26s-35-8-47-26z" fill="#c66669" data-color="1"/>
        <path d="M3407 6582c-32-35-19-76 26-87 52-14 89 51 51 89-21 21-57 20-77-2z" fill="#c66669" data-color="1"/>
        <path d="M6496 6584c-38-38-1-103 51-89 15 3 31 12 35 18 34 53-42 116-86 71z" fill="#c66669" data-color="1"/>
        <path d="M2772 5044c-32-22-30-69 4-91 24-15 28-15 52 0 37 21 41 65 10 89-28 22-38 22-66 2z" fill="#c66669" data-color="1"/>
        <path d="M7142 5042c-31-24-27-68 10-89 24-15 28-15 52 0 34 22 36 69 4 91-28 20-38 20-66-2z" fill="#c66669" data-color="1"/>
        <path d="M3420 3503c-52-20-30-103 28-103 47 0 69 61 34 93-19 17-35 20-62 10z" fill="#c66669" data-color="1"/>
        <path d="M6497 3493c-33-38-11-93 37-93 41 0 70 53 48 87-15 23-66 26-85 6z" fill="#c66669" data-color="1"/>
        <path d="M4945 2843c-16-24-16-30-4-52 11-20 23-26 49-26s38 6 49 26c12 22 12 28-4 52-12 19-26 27-45 27s-33-8-45-27z" fill="#c66669" data-color="1"/>
    </g>
</svg>
